<svg width="24" height="24" viewBox="0 0 24 24" fill="none" xmlns="http://www.w3.org/2000/svg">
<path d="M2 10.4375V11.0625C2 11.5803 2.37309 12 2.83333 12H3.11111L4.01781 19.1401C4.1351 20.0639 4.8383 20.75 5.66771 20.75H18.3323C19.1617 20.75 19.8649 20.0639 19.9822 19.1401L20.8889 12H21.1667C21.6269 12 22 11.5803 22 11.0625V10.4375C22 9.91972 21.6269 9.49999 21.1667 9.49999H18.8284L15.1208 3.76479C14.7599 3.20651 14.065 3.08304 13.5687 3.48909C13.0724 3.89514 12.9627 4.6769 13.3236 5.23522L16.0807 9.49999H7.91934L10.6764 5.23518C11.0373 4.6769 10.9276 3.89511 10.4313 3.48905C9.93507 3.083 9.2401 3.20643 8.87917 3.76475L5.17156 9.49999H2.83333C2.37309 9.49999 2 9.91972 2 10.4375ZM11.1667 17.3125V12.9375C11.1667 12.4197 11.5398 12 12 12C12.4602 12 12.8333 12.4197 12.8333 12.9375V17.3125C12.8333 17.8303 12.4602 18.25 12 18.25C11.5398 18.25 11.1667 17.8303 11.1667 17.3125ZM7.27778 17.3125V12.9375C7.27778 12.4197 7.65087 12 8.11111 12C8.57135 12 8.94444 12.4197 8.94444 12.9375V17.3125C8.94444 17.8303 8.57135 18.25 8.11111 18.25C7.65087 18.25 7.27778 17.8303 7.27778 17.3125ZM15.0556 17.3125V12.9375C15.0556 12.4197 15.4286 12 15.8889 12C16.3491 12 16.7222 12.4197 16.7222 12.9375V17.3125C16.7222 17.8303 16.3491 18.25 15.8889 18.25C15.4286 18.25 15.0556 17.8303 15.0556 17.3125Z" fill="black"/>
</svg>
