<svg width="27" height="30" viewBox="0 0 27 30" fill="none" xmlns="http://www.w3.org/2000/svg">
<path d="M3.22559 25.4717V26.1572H0.999023V25.4717H3.22559ZM1.25977 23.7344V28H0.380859V23.7344H1.25977ZM3.85254 23.7344V28H2.97656V23.7344H3.85254ZM5.55176 23.7344V28H4.67578V23.7344H5.55176ZM8.5957 26.8838C8.5957 26.8076 8.58398 26.7393 8.56055 26.6787C8.53906 26.6162 8.49805 26.5596 8.4375 26.5088C8.37695 26.4561 8.29199 26.4043 8.18262 26.3535C8.07324 26.3027 7.93164 26.25 7.75781 26.1953C7.56445 26.1328 7.38086 26.0625 7.20703 25.9844C7.03516 25.9062 6.88281 25.8154 6.75 25.7119C6.61914 25.6064 6.51562 25.4844 6.43945 25.3457C6.36523 25.207 6.32812 25.0459 6.32812 24.8623C6.32812 24.6846 6.36719 24.5234 6.44531 24.3789C6.52344 24.2324 6.63281 24.1074 6.77344 24.0039C6.91406 23.8984 7.08008 23.8174 7.27148 23.7607C7.46484 23.7041 7.67676 23.6758 7.90723 23.6758C8.22168 23.6758 8.49609 23.7324 8.73047 23.8457C8.96484 23.959 9.14648 24.1143 9.27539 24.3115C9.40625 24.5088 9.47168 24.7344 9.47168 24.9883H8.59863C8.59863 24.8633 8.57227 24.7539 8.51953 24.6602C8.46875 24.5645 8.39062 24.4893 8.28516 24.4346C8.18164 24.3799 8.05078 24.3525 7.89258 24.3525C7.74023 24.3525 7.61328 24.376 7.51172 24.4229C7.41016 24.4678 7.33398 24.5293 7.2832 24.6074C7.23242 24.6836 7.20703 24.7695 7.20703 24.8652C7.20703 24.9375 7.22461 25.0029 7.25977 25.0615C7.29688 25.1201 7.35156 25.1748 7.42383 25.2256C7.49609 25.2764 7.58496 25.3242 7.69043 25.3691C7.7959 25.4141 7.91797 25.458 8.05664 25.501C8.28906 25.5713 8.49316 25.6504 8.66895 25.7383C8.84668 25.8262 8.99512 25.9248 9.11426 26.0342C9.2334 26.1436 9.32324 26.2676 9.38379 26.4062C9.44434 26.5449 9.47461 26.7021 9.47461 26.8779C9.47461 27.0635 9.43848 27.2295 9.36621 27.376C9.29395 27.5225 9.18945 27.6465 9.05273 27.748C8.91602 27.8496 8.75293 27.9268 8.56348 27.9795C8.37402 28.0322 8.16211 28.0586 7.92773 28.0586C7.7168 28.0586 7.50879 28.0312 7.30371 27.9766C7.09863 27.9199 6.91211 27.835 6.74414 27.7217C6.57812 27.6084 6.44531 27.4639 6.3457 27.2881C6.24609 27.1123 6.19629 26.9043 6.19629 26.6641H7.07812C7.07812 26.7969 7.09863 26.9092 7.13965 27.001C7.18066 27.0928 7.23828 27.167 7.3125 27.2236C7.38867 27.2803 7.47852 27.3213 7.58203 27.3467C7.6875 27.3721 7.80273 27.3848 7.92773 27.3848C8.08008 27.3848 8.20508 27.3633 8.30273 27.3203C8.40234 27.2773 8.47559 27.2178 8.52246 27.1416C8.57129 27.0654 8.5957 26.9795 8.5957 26.8838ZM11.9795 23.7344V28H11.1035V23.7344H11.9795ZM13.292 23.7344V24.4229H9.81152V23.7344H13.292ZM17.2148 25.7676V25.9697C17.2148 26.2939 17.1709 26.585 17.083 26.8428C16.9951 27.1006 16.8711 27.3203 16.7109 27.502C16.5508 27.6816 16.3594 27.8193 16.1367 27.915C15.916 28.0107 15.6709 28.0586 15.4014 28.0586C15.1338 28.0586 14.8887 28.0107 14.666 27.915C14.4453 27.8193 14.2539 27.6816 14.0918 27.502C13.9297 27.3203 13.8037 27.1006 13.7139 26.8428C13.626 26.585 13.582 26.2939 13.582 25.9697V25.7676C13.582 25.4414 13.626 25.1504 13.7139 24.8945C13.8018 24.6367 13.9258 24.417 14.0859 24.2354C14.248 24.0537 14.4395 23.915 14.6602 23.8193C14.8828 23.7236 15.1279 23.6758 15.3955 23.6758C15.665 23.6758 15.9102 23.7236 16.1309 23.8193C16.3535 23.915 16.5449 24.0537 16.7051 24.2354C16.8672 24.417 16.9922 24.6367 17.0801 24.8945C17.1699 25.1504 17.2148 25.4414 17.2148 25.7676ZM16.3271 25.9697V25.7617C16.3271 25.5352 16.3066 25.3359 16.2656 25.1641C16.2246 24.9922 16.1641 24.8477 16.084 24.7305C16.0039 24.6133 15.9062 24.5254 15.791 24.4668C15.6758 24.4062 15.5439 24.376 15.3955 24.376C15.2471 24.376 15.1152 24.4062 15 24.4668C14.8867 24.5254 14.79 24.6133 14.71 24.7305C14.6318 24.8477 14.5723 24.9922 14.5312 25.1641C14.4902 25.3359 14.4697 25.5352 14.4697 25.7617V25.9697C14.4697 26.1943 14.4902 26.3936 14.5312 26.5674C14.5723 26.7393 14.6328 26.8848 14.7129 27.0039C14.793 27.1211 14.8906 27.21 15.0059 27.2705C15.1211 27.3311 15.2529 27.3613 15.4014 27.3613C15.5498 27.3613 15.6816 27.3311 15.7969 27.2705C15.9121 27.21 16.0088 27.1211 16.0869 27.0039C16.165 26.8848 16.2246 26.7393 16.2656 26.5674C16.3066 26.3936 16.3271 26.1943 16.3271 25.9697ZM17.8477 23.7344H19.4385C19.7646 23.7344 20.0449 23.7832 20.2793 23.8809C20.5156 23.9785 20.6973 24.123 20.8242 24.3145C20.9512 24.5059 21.0146 24.7412 21.0146 25.0205C21.0146 25.249 20.9756 25.4453 20.8975 25.6094C20.8213 25.7715 20.7129 25.9072 20.5723 26.0166C20.4336 26.124 20.2705 26.21 20.083 26.2744L19.8047 26.4209H18.4219L18.416 25.7354H19.4443C19.5986 25.7354 19.7266 25.708 19.8281 25.6533C19.9297 25.5986 20.0059 25.5225 20.0566 25.4248C20.1094 25.3271 20.1357 25.2139 20.1357 25.085C20.1357 24.9482 20.1104 24.8301 20.0596 24.7305C20.0088 24.6309 19.9316 24.5547 19.8281 24.502C19.7246 24.4492 19.5947 24.4229 19.4385 24.4229H18.7266V28H17.8477V23.7344ZM20.2324 28L19.2598 26.0986L20.1885 26.0928L21.1729 27.959V28H20.2324ZM22.1367 23.7344L23.0273 25.6797L23.918 23.7344H24.876L23.4727 26.4473V28H22.582V26.4473L21.1758 23.7344H22.1367Z" fill="black"/>
<g clip-path="url(#clip0_36_137)">
<path d="M23.9984 9.98168V10.0008C23.9984 15.5233 19.5217 20 13.9992 20C11.7071 20.0037 9.48391 19.2163 7.70502 17.7708L7.72335 17.7858C7.61807 17.7004 7.53191 17.5937 7.47046 17.4728C7.40902 17.3519 7.37365 17.2194 7.36666 17.084C7.35967 16.9486 7.38121 16.8132 7.42988 16.6866C7.47855 16.56 7.55326 16.445 7.64919 16.3492L8.10335 15.895C8.27091 15.7258 8.49491 15.6243 8.73257 15.6099C8.97022 15.5954 9.20487 15.6691 9.39169 15.8167L9.39002 15.815C10.6995 16.8573 12.3247 17.423 13.9984 17.4192C15.2089 17.4192 16.4011 17.1229 17.4709 16.5563C18.5407 15.9897 19.4556 15.1699 20.1358 14.1684C20.816 13.167 21.2407 12.0143 21.3731 10.811C21.5054 9.60762 21.3412 8.39018 20.8949 7.26486C20.4486 6.13954 19.7337 5.14052 18.8126 4.35497C17.8915 3.56942 16.7922 3.02119 15.6105 2.75813C14.4289 2.49507 13.2008 2.52515 12.0334 2.84577C10.8661 3.16639 9.79488 3.76779 8.91335 4.59751L8.91752 4.59418L10.9642 6.64084C11.0543 6.7311 11.1157 6.84606 11.1405 6.97119C11.1653 7.09632 11.1525 7.22599 11.1036 7.34383C11.0547 7.46166 10.972 7.56235 10.8659 7.63316C10.7598 7.70398 10.6351 7.74174 10.5075 7.74168H4.64585C4.47479 7.74168 4.31073 7.67372 4.18977 7.55276C4.06881 7.4318 4.00085 7.26774 4.00085 7.09668V1.23501C4.00118 1.10762 4.03918 0.983174 4.11006 0.877325C4.18095 0.771476 4.28155 0.688955 4.39922 0.640142C4.51689 0.591329 4.64636 0.578405 4.77136 0.602996C4.89635 0.627588 5.01128 0.688595 5.10169 0.778345L7.09252 2.76918C8.95088 0.988517 11.4263 -0.00384586 14 1.12015e-05C19.5159 1.12015e-05 23.9892 4.46668 23.9992 9.98001V9.98084L23.9984 9.98168ZM16.7042 13.1575L17.1 12.6483C17.1783 12.5483 17.236 12.4338 17.2699 12.3114C17.3038 12.189 17.3132 12.0611 17.2975 11.9351C17.2819 11.809 17.2415 11.6873 17.1787 11.5769C17.116 11.4665 17.032 11.3696 16.9317 11.2917L16.9292 11.29L15.2884 10.0133V5.80668C15.2884 5.27251 14.855 4.83834 14.32 4.83834H13.675C13.1409 4.83834 12.7067 5.27168 12.7067 5.80668V11.2733L15.3442 13.3242C15.5462 13.4823 15.8026 13.5538 16.0573 13.5231C16.312 13.4923 16.544 13.3617 16.7025 13.16L16.7042 13.1575Z" fill="black"/>
</g>
<defs>
<clipPath id="clip0_36_137">
<rect width="20" height="20" fill="white" transform="translate(4)"/>
</clipPath>
</defs>
</svg>
