<svg width="20" height="30" viewBox="0 0 20 30" fill="none" xmlns="http://www.w3.org/2000/svg">
<path d="M4.22559 25.4717V26.1572H1.99902V25.4717H4.22559ZM2.25977 23.7344V28H1.38086V23.7344H2.25977ZM4.85254 23.7344V28H3.97656V23.7344H4.85254ZM9.12109 25.7676V25.9697C9.12109 26.2939 9.07715 26.585 8.98926 26.8428C8.90137 27.1006 8.77734 27.3203 8.61719 27.502C8.45703 27.6816 8.26562 27.8193 8.04297 27.915C7.82227 28.0107 7.57715 28.0586 7.30762 28.0586C7.04004 28.0586 6.79492 28.0107 6.57227 27.915C6.35156 27.8193 6.16016 27.6816 5.99805 27.502C5.83594 27.3203 5.70996 27.1006 5.62012 26.8428C5.53223 26.585 5.48828 26.2939 5.48828 25.9697V25.7676C5.48828 25.4414 5.53223 25.1504 5.62012 24.8945C5.70801 24.6367 5.83203 24.417 5.99219 24.2354C6.1543 24.0537 6.3457 23.915 6.56641 23.8193C6.78906 23.7236 7.03418 23.6758 7.30176 23.6758C7.57129 23.6758 7.81641 23.7236 8.03711 23.8193C8.25977 23.915 8.45117 24.0537 8.61133 24.2354C8.77344 24.417 8.89844 24.6367 8.98633 24.8945C9.07617 25.1504 9.12109 25.4414 9.12109 25.7676ZM8.2334 25.9697V25.7617C8.2334 25.5352 8.21289 25.3359 8.17188 25.1641C8.13086 24.9922 8.07031 24.8477 7.99023 24.7305C7.91016 24.6133 7.8125 24.5254 7.69727 24.4668C7.58203 24.4062 7.4502 24.376 7.30176 24.376C7.15332 24.376 7.02148 24.4062 6.90625 24.4668C6.79297 24.5254 6.69629 24.6133 6.61621 24.7305C6.53809 24.8477 6.47852 24.9922 6.4375 25.1641C6.39648 25.3359 6.37598 25.5352 6.37598 25.7617V25.9697C6.37598 26.1943 6.39648 26.3936 6.4375 26.5674C6.47852 26.7393 6.53906 26.8848 6.61914 27.0039C6.69922 27.1211 6.79688 27.21 6.91211 27.2705C7.02734 27.3311 7.15918 27.3613 7.30762 27.3613C7.45605 27.3613 7.58789 27.3311 7.70312 27.2705C7.81836 27.21 7.91504 27.1211 7.99316 27.0039C8.07129 26.8848 8.13086 26.7393 8.17188 26.5674C8.21289 26.3936 8.2334 26.1943 8.2334 25.9697ZM10.1553 23.7344H10.8994L11.9951 26.8662L13.0908 23.7344H13.835L12.2939 28H11.6963L10.1553 23.7344ZM9.75391 23.7344H10.4951L10.6299 26.7871V28H9.75391V23.7344ZM13.4951 23.7344H14.2393V28H13.3604V26.7871L13.4951 23.7344ZM17.8721 27.3145V28H15.6016V27.3145H17.8721ZM15.8887 23.7344V28H15.0098V23.7344H15.8887ZM17.5762 25.4717V26.1396H15.6016V25.4717H17.5762ZM17.8691 23.7344V24.4229H15.6016V23.7344H17.8691Z" fill="black"/>
<path d="M18.4863 9.8633L10.4414 1.82423C10.3835 1.76619 10.3147 1.72015 10.2389 1.68873C10.1632 1.65732 10.082 1.64114 10 1.64114C9.918 1.64114 9.83681 1.65732 9.76106 1.68873C9.68532 1.72015 9.61652 1.76619 9.55859 1.82423L1.51367 9.8633C1.2793 10.0977 1.14648 10.416 1.14648 10.7481C1.14648 11.4375 1.70703 11.9981 2.39648 11.9981H3.24414V17.7344C3.24414 18.0801 3.52344 18.3594 3.86914 18.3594H8.75V13.9844H10.9375V18.3594H16.1309C16.4766 18.3594 16.7559 18.0801 16.7559 17.7344V11.9981H17.6035C17.9355 11.9981 18.2539 11.8672 18.4883 11.6309C18.9746 11.1426 18.9746 10.3516 18.4863 9.8633V9.8633Z" fill="black"/>
</svg>
