<svg width="20" height="30" viewBox="0 0 20 30" fill="none" xmlns="http://www.w3.org/2000/svg">
<path d="M1.78223 23.7344H2.52637L3.62207 26.8662L4.71777 23.7344H5.46191L3.9209 28H3.32324L1.78223 23.7344ZM1.38086 23.7344H2.12207L2.25684 26.7871V28H1.38086V23.7344ZM5.12207 23.7344H5.86621V28H4.9873V26.7871L5.12207 23.7344ZM9.49902 27.3145V28H7.22852V27.3145H9.49902ZM7.51562 23.7344V28H6.63672V23.7344H7.51562ZM9.20312 25.4717V26.1396H7.22852V25.4717H9.20312ZM9.49609 23.7344V24.4229H7.22852V23.7344H9.49609ZM13.4834 23.7344V28H12.6045L10.8906 25.1406V28H10.0117V23.7344H10.8906L12.6074 26.5967V23.7344H13.4834ZM16.6035 23.7344H17.4795V26.5527C17.4795 26.8809 17.4092 27.1572 17.2686 27.3818C17.1299 27.6064 16.9375 27.7754 16.6914 27.8887C16.4473 28.002 16.166 28.0586 15.8477 28.0586C15.5293 28.0586 15.2461 28.002 14.998 27.8887C14.752 27.7754 14.5586 27.6064 14.418 27.3818C14.2793 27.1572 14.21 26.8809 14.21 26.5527V23.7344H15.0889V26.5527C15.0889 26.7441 15.1191 26.9004 15.1797 27.0215C15.2402 27.1426 15.3271 27.2314 15.4404 27.2881C15.5557 27.3447 15.6914 27.373 15.8477 27.373C16.0078 27.373 16.1436 27.3447 16.2549 27.2881C16.3682 27.2314 16.4541 27.1426 16.5127 27.0215C16.5732 26.9004 16.6035 26.7441 16.6035 26.5527V23.7344Z" fill="black"/>
<path d="M2.5 1.66666H4.16667V18.3333H2.5V1.66666ZM15.8333 1.66666H5V18.3333H15.8333C16.7525 18.3333 17.5 17.5858 17.5 16.6667V3.33332C17.5 2.41416 16.7525 1.66666 15.8333 1.66666ZM15 9.99999H7.5V8.33332H15V9.99999ZM15 6.66666H7.5V4.99999H15V6.66666Z" fill="black"/>
</svg>
